<?xml version="1.0"?>
<svg xmlns:rdf="http://www.w3.org/1999/02/22-rdf-syntax-ns#" xmlns="http://www.w3.org/2000/svg" xmlns:cc="http://web.resource.org/cc/" xmlns:dc="http://purl.org/dc/elements/1.1/" xmlns:svg="http://www.w3.org/2000/svg" id="svg2" viewBox="0 0 504 504" version="1.0">
  <g id="layer1" transform="translate(-523.71 -225.65)">
    <path id="path2406" transform="translate(523.71 225.65)" d="m90 422.5v-18.5h25v-42.71l21-22.36 21-22.36v-149.12l-24.44-18.47-24.45-18.48-0.05-33.75-0.06-33.75h57v30h52v-30h70v30h52v-30h57l-0.05 33.75-0.05 33.75-24.45 18.5-24.45 18.5v149.39l20.97 22.31 20.97 22.3 0.03 21.25 0.03 21.25h25v37h-324v-18.5z"/>
    <path id="path2392" d="m387.55 134.55c1.35-1.35 2.45-3.62 2.45-5.05 0-1.42-1.1-3.7-2.45-5.05l-2.46-2.45h-266.18l-2.46 2.45c-1.35 1.35-2.45 3.63-2.45 5.05s1.1 3.7 2.45 5.05l2.46 2.45h266.18l2.46-2.45z" transform="translate(523.71 225.65)" fill="#fff"/>
    <path id="path2390" d="m337.55 172.55c1.35-1.35 2.45-3.62 2.45-5.05 0-1.42-1.1-3.7-2.45-5.05l-2.46-2.45h-166.18l-2.46 2.45c-1.35 1.35-2.45 3.63-2.45 5.05s1.1 3.7 2.45 5.05l2.46 2.45h166.18l2.46-2.45z" transform="translate(523.71 225.65)" fill="#fff"/>
    <path id="path2388" d="m337.55 321.55c1.35-1.35 2.45-3.62 2.45-5.05 0-1.42-1.1-3.7-2.45-5.05l-2.46-2.45h-166.18l-2.46 2.45c-1.35 1.35-2.45 3.63-2.45 5.05 0 1.43 1.1 3.7 2.45 5.05l2.46 2.45h166.18l2.46-2.45z" transform="translate(523.71 225.65)" fill="#fff"/>
    <path id="path2386" d="m379.09 367.72c4.34-3.34 4.6-8.07 0.64-11.75-2.07-1.94-4.21-1.97-127.73-1.97s-125.66 0.03-127.73 1.97c-3.96 3.68-3.7 8.41 0.64 11.75 2.31 1.77 251.87 1.77 254.18 0z" transform="translate(523.71 225.65)" fill="#fff"/>
    <path id="path2384" d="m379.09 409.72c4.34-3.34 4.6-8.07 0.64-11.75-2.07-1.94-4.21-1.97-127.73-1.97s-125.66 0.03-127.73 1.97c-3.96 3.68-3.7 8.41 0.64 11.75 2.31 1.77 251.87 1.77 254.18 0z" transform="translate(523.71 225.65)" fill="#fff"/>
  </g>
  <metadata>
    <rdf:RDF>
      <cc:Work>
        <dc:format>image/svg+xml</dc:format>
        <dc:type rdf:resource="http://purl.org/dc/dcmitype/StillImage"/>
        <cc:license rdf:resource="http://creativecommons.org/licenses/publicdomain/"/>
        <dc:publisher>
          <cc:Agent rdf:about="http://openclipart.org/">
            <dc:title>Openclipart</dc:title>
          </cc:Agent>
        </dc:publisher>
        <dc:title>Chess tile - Rook 1</dc:title>
        <dc:date>2006-12-26T00:00:00</dc:date>
        <dc:description>clip art, clipart, </dc:description>
        <dc:source>http://openclipart.org/detail/18657/-by--18657</dc:source>
        <dc:creator>
          <cc:Agent>
            <dc:title>portablejim</dc:title>
          </cc:Agent>
        </dc:creator>
        <dc:subject>
          <rdf:Bag>
            <rdf:li>clip art</rdf:li>
            <rdf:li>clipart</rdf:li>
          </rdf:Bag>
        </dc:subject>
      </cc:Work>
      <cc:License rdf:about="http://creativecommons.org/licenses/publicdomain/">
        <cc:permits rdf:resource="http://creativecommons.org/ns#Reproduction"/>
        <cc:permits rdf:resource="http://creativecommons.org/ns#Distribution"/>
        <cc:permits rdf:resource="http://creativecommons.org/ns#DerivativeWorks"/>
      </cc:License>
    </rdf:RDF>
  </metadata>
</svg>
